<svg xmlns="http://www.w3.org/2000/svg" version="1.1" xmlns:xlink="http://www.w3.org/1999/xlink" width="1000" height="1000"><g clip-path="url(#SvgjsClipPath1003)"><rect width="1000" height="1000" fill="#ffffff"></rect><g transform="matrix(3.5,0,0,3.5,150,150)"><svg xmlns="http://www.w3.org/2000/svg" version="1.1" xmlns:xlink="http://www.w3.org/1999/xlink" width="200" height="200"><svg xmlns="http://www.w3.org/2000/svg" version="1.1" xmlns:xlink="http://www.w3.org/1999/xlink" viewBox="0 0 200 200"><rect width="200" height="200" fill="url('#gradient')"></rect><defs><linearGradient id="gradient" gradientTransform="rotate(0 0.5 0.5)"><stop offset="0%" stop-color="#06b6d4"></stop><stop offset="100%" stop-color="#d946ef"></stop></linearGradient><clipPath id="SvgjsClipPath1003"><rect width="1000" height="1000" x="0" y="0" rx="350" ry="350"></rect></clipPath></defs><g><g fill="#ffffff" transform="matrix(12.128129205921939,0,0,12.128129205921939,7.763159281440565,185.5646137000093)" stroke="#c8512e" stroke-width="0"><path d="M12.24-14.22L12.24-11.57L7.97-11.57L7.97 0L4.54 0L4.54-11.57L0.35-11.57L0.35-14.22L12.24-14.22ZM13.05-3.19L13.05-3.19Q13.83-3.19 14.35-2.73Q14.86-2.27 14.86-1.54Q14.86-0.82 14.35-0.36Q13.83 0.11 13.05 0.11L13.05 0.11Q12.26 0.11 11.74-0.36Q11.23-0.83 11.23-1.54Q11.23-2.26 11.74-2.72Q12.26-3.19 13.05-3.19Z"></path></g></g></svg></svg></g></g></svg>