<svg xmlns="http://www.w3.org/2000/svg" viewBox="0 0 64 64">
  <defs>
    <linearGradient id="grad" x1="12%" x2="88%" y1="16%" y2="84%">
      <stop offset="0" stop-color="#4f6ef7" />
      <stop offset="0.5" stop-color="#7f7cfb" />
      <stop offset="1" stop-color="#2dd4ff" />
    </linearGradient>
  </defs>
  <rect width="64" height="64" rx="16" fill="url(#grad)" />
  <path fill="#ffffff" fill-opacity="0.18" d="M12 16h40v4H12zM12 44h40v4H12z" />
  <path fill="#ffffff" d="M20 20h24a2 2 0 0 1 0 4h-9v20a3 3 0 0 1-3 3h-4a3 3 0 0 1-3-3V24h-5a2 2 0 1 1 0-4Zm23.5 16.2a2.4 2.4 0 0 1 3.4 0l4.9 4.9a2.4 2.4 0 0 1 0 3.4l-1.7 1.7a2.4 2.4 0 0 1-3.4 0l-4.9-4.9a2.4 2.4 0 0 1 0-3.4Z" />
</svg>
